<svg viewBox="0 0 100 100" xmlns="http://www.w3.org/2000/svg">
  <!-- الخلفية الدائرية -->
  <circle cx="50" cy="50" r="48" fill="#24292e"/>
  
  <!-- شعار GitHub - القطة -->
  <path d="M 50 15 
           C 30 15 14 31 14 51 
           C 14 67 24 80 38 85
           C 40 85.5 41 84 41 83
           L 41 76
           C 32 78 30 71 30 71
           C 29 68 27 67 27 67
           C 24 65 27 65 27 65
           C 30 65 32 68 32 68
           C 35 73 40 71 41 71
           C 41 69 42 68 43 67
           C 35 66 27 63 27 51
           C 27 47 29 44 31 42
           C 31 41 30 38 32 34
           C 32 34 35 33 41 37
           C 43 36 46 36 50 36
           C 54 36 57 36 59 37
           C 65 33 68 34 68 34
           C 70 38 69 41 69 42
           C 71 44 73 47 73 51
           C 73 63 65 66 57 67
           C 58 68 59 69 59 71
           L 59 83
           C 59 84 60 85.5 62 85
           C 76 80 86 67 86 51
           C 86 31 70 15 50 15 Z" 
        fill="white"/>
</svg>